<svg xmlns="http://www.w3.org/2000/svg" width="74.203" height="74.203" viewBox="0 0 74.203 74.203"><g transform="translate(-3.375 -3.375)"><path d="M28.244,11.334a16.91,16.91,0,1,0,16.91,16.91A16.923,16.923,0,0,0,28.244,11.334Z" transform="translate(12.233 12.233)" fill="#458bff"/><path d="M39.944,13.556A7.706,7.706,0,1,1,32.238,5.85,7.706,7.706,0,0,1,39.944,13.556Z" transform="translate(32.516 3.804)" fill="#458bff"/><path d="M74.243,25.1l-.321-.713-.517.589a11.656,11.656,0,0,1-4.656,3.193l-.5.178.2.482A30.3,30.3,0,1,1,53.462,13.1l.482.232.214-.482a11.608,11.608,0,0,1,3.425-4.5l.606-.482-.7-.357A36.717,36.717,0,0,0,40.477,3.375,37.1,37.1,0,1,0,74.243,25.1Z" transform="translate(0 0)" fill="#458bff"/></g></svg>