<svg xmlns="http://www.w3.org/2000/svg" xmlns:xlink="http://www.w3.org/1999/xlink" width="85.644" height="93.74" viewBox="0 0 85.644 93.74"><defs><linearGradient id="a" x1="-4.183" y1="0.143" x2="-3.174" y2="0.794" gradientUnits="objectBoundingBox"><stop offset="0" stop-color="#909ca9"/><stop offset="1" stop-color="#ededee"/></linearGradient><linearGradient id="b" x1="-8.133" y1="37.388" x2="-6.64" y2="37.388" gradientUnits="objectBoundingBox"><stop offset="0" stop-color="#939fab"/><stop offset="1" stop-color="#dcdee1"/></linearGradient><radialGradient id="c" cx="0.443" cy="0.439" r="0.128" gradientTransform="matrix(-0.691, -0.149, -0.208, 1.978, -19.227, -9.973)" gradientUnits="objectBoundingBox"><stop offset="0" stop-color="#ee352c"/><stop offset="1" stop-color="#a91d22"/></radialGradient></defs><g transform="translate(-61.174 0.001)"><g transform="translate(61.174 -0.001)"><path d="M386.585,463.277l-18.773,6.13-16.332,7.208-4.569,1.206c-1.164,1.107-2.384,2.228-3.7,3.363-1.447,1.249-2.8,2.384-3.831,3.207a28.579,28.579,0,0,0-3.717,3.689,16.727,16.727,0,0,0-2.753,4.654,7.813,7.813,0,0,0,1.107,7.024c1.93,2.838,5.775,5.732,10.259,7.7a65.187,65.187,0,0,0,9.024,3.022,119.486,119.486,0,0,0,19.241,2.739,22.06,22.06,0,0,0,2.483,0,33.807,33.807,0,0,0,1.831-3.476,87.888,87.888,0,0,0,6.655-17.609,83.45,83.45,0,0,0,1.7-12.2c.1-1.376.142-5.988.057-7.549a53.009,53.009,0,0,0-.709-6.655,1.535,1.535,0,0,1-.043-.582,24.527,24.527,0,0,1,2.54-.766l-.468-1.107h0Zm-4.285,2.512a45.953,45.953,0,0,1,.738,7.109,3.8,3.8,0,0,1-.014.965c-.113,0-2.4-1.348-4.03-2.369-1.419-.894-4.115-2.682-4.541-3.022-.142-.1-.128-.113,1.036-.511C377.461,467.293,382.144,465.789,382.3,465.789Zm-9.564,3.15a4.709,4.709,0,0,1,1.234.667,87.968,87.968,0,0,0,8.6,4.782c.525.227.582.142-.624.965a61.849,61.849,0,0,1-9.748,5.236c-.7.312-1.277.553-1.291.553a3.682,3.682,0,0,1,.17-.78,41.84,41.84,0,0,0,1.519-9.975c.014-1.419.014-1.419.142-1.461C372.708,468.939,372.722,468.939,372.736,468.939Zm-1.972.752a30.592,30.592,0,0,1-.085,4.129,36.111,36.111,0,0,1-1.305,6.173,9.472,9.472,0,0,1-.326.993,24.962,24.962,0,0,1-2.639-2.568,19.2,19.2,0,0,1-2.611-3.8,11.955,11.955,0,0,1-.795-1.93c.227-.156,7.7-3.051,7.762-2.994Zm-9.28,3.647a.053.053,0,0,1,.043.014,2.648,2.648,0,0,1,.213.511,19.177,19.177,0,0,0,2.355,4.214,24.014,24.014,0,0,0,3.278,3.533c.341.284.653.553.7.6.085.085.114.071-2.2.951-2.682,1.022-5.6,2.043-8.953,3.122q-1.2.387-2.4.78c-.128.043-.085-.028.284-.61a79.791,79.791,0,0,0,5.6-11.295c.241-.624.482-1.249.525-1.391a.512.512,0,0,1,.312-.369,1.376,1.376,0,0,1,.241-.057Zm-2.838,1.178a31.745,31.745,0,0,1-1.391,2.937c-1.376,2.682-2.88,5.321-4.9,8.528-.34.553-.667,1.064-.709,1.121-.071.1-.1.071-.326-.369a13.01,13.01,0,0,1-1.093-3.292,13.248,13.248,0,0,1,.071-4.228c.184-.88.17-.865.6-1.078C352.715,477.211,358.59,474.458,358.646,474.515Zm24.477.993v.6a77.192,77.192,0,0,1-.837,10.671c-.085.553-.156,1.007-.17,1.022s-.411-.113-.894-.255a36.615,36.615,0,0,1-6.527-2.8,28.9,28.9,0,0,1-3.32-2.044c.014-.014.61-.326,1.305-.7a83.6,83.6,0,0,0,7.762-4.555c.866-.582,2.171-1.518,2.455-1.774l.227-.17Zm-35.19,4.2c.057,0,.043.114-.043.624-.057.369-.128,1.05-.156,1.518a10.5,10.5,0,0,0,1.249,5.7,11.788,11.788,0,0,1,.5,1.078c-.1.085-9.493,2.838-12.444,3.647-.88.241-1.646.454-1.7.468-.1.029-.113.014-.071-.227.326-2.086,1.916-4.81,4.129-7.109a18.353,18.353,0,0,1,4.668-3.576c1.447-.823,3.675-2.057,3.845-2.114C347.9,479.708,347.919,479.708,347.933,479.708Zm22.135,3.959a5.726,5.726,0,0,1,.766.412,42.749,42.749,0,0,0,10.869,4.228l.327.071-.454.255c-1.887,1.05-8.088,3.633-14.43,6-.922.34-1.83.681-2,.752a1.023,1.023,0,0,1-.326.1c0-.014.256-.511.582-1.121a70.017,70.017,0,0,0,4.47-10.174C369.984,483.923,370.054,483.681,370.069,483.667Zm-2.256.738a4.089,4.089,0,0,1-.241.653,89.857,89.857,0,0,1-4.924,9.918c-.525.937-.965,1.689-.979,1.689s-.44-.256-.951-.568a29.181,29.181,0,0,1-7.421-6.314l-.256-.312,1.291-.355a92.649,92.649,0,0,0,12.458-4.3C367.344,484.59,367.8,484.405,367.813,484.405Zm14.019,4.9h0c.014.326-.71,3.249-1.306,5.363-.5,1.774-.922,3.164-1.7,5.619-.341,1.079-.638,1.972-.653,1.972a.936.936,0,0,1-.184-.042,59.3,59.3,0,0,1-11.536-3.249c-.993-.4-2.412-1.036-2.5-1.107a16.552,16.552,0,0,1,1.9-.894c6.456-2.824,13.154-6.031,15.452-7.407A1.85,1.85,0,0,1,381.832,489.3Zm-32.366,1.107c.028.028-1.774,2.625-4.3,6.158-.88,1.235-1.9,2.682-2.284,3.221s-.965,1.391-1.291,1.9l-.6.922-.639-.539a23.636,23.636,0,0,1-2.639-2.7,11.645,11.645,0,0,1-2.37-4.583c-.156-.681-.156-1.022-.014-1.064.213-.057,4-.951,7.549-1.774,1.972-.454,4.257-.993,5.08-1.192S349.452,490.407,349.466,490.407Zm1.816.7.454.511a26.643,26.643,0,0,0,6.655,5.449,3.729,3.729,0,0,1,.766.5c-.1.071-8.769,3.15-12.785,4.54-2.256.795-4.115,1.433-4.129,1.433a2.441,2.441,0,0,1-.284-.184l-.255-.185.411-.6c1.334-1.93,3.008-4.044,6.655-8.443l2.511-3.022Zm11.323,8.1c.014-.014.638.213,1.4.5a45.415,45.415,0,0,0,5.264,1.632,58.272,58.272,0,0,0,7.96,1.376c.312.028.482.057.426.1-.1.057-2.185.752-3.718,1.234-2.441.766-9.89,2.965-15.963,4.711-1.121.326-2.086.6-2.143.61a1.125,1.125,0,0,1-.61-.156,10.277,10.277,0,0,1,.752-.951,84.224,84.224,0,0,0,5.761-7.747c.468-.71.866-1.291.866-1.306Zm-2.5.071c.014.014-.993,1.632-2.753,4.413-.752,1.178-1.589,2.512-1.887,2.98s-.709,1.164-.951,1.561l-.412.724-.213-.057c-.511-.142-4.1-1.4-5.052-1.788a35.139,35.139,0,0,1-3.306-1.518,13.813,13.813,0,0,1-2.44-1.547c.028-.014,1.972-.539,4.313-1.178,6.215-1.689,9.663-2.668,11.919-3.377a5.672,5.672,0,0,1,.78-.213Zm17.666,4.143h.014c.057.142-2.242,6.527-3.079,8.542-.184.454-.255.568-.354.553-.241-.014-3.576-.482-5.6-.78-3.533-.539-9.464-1.575-10.954-1.916l-.341-.071,2.114-.483c4.541-1.022,6.726-1.575,8.939-2.256a63.176,63.176,0,0,0,8.358-3.221,6.85,6.85,0,0,1,.908-.369Z" transform="translate(-332.512 -419.516)" fill="url(#a)"/><path d="M476.737,82.735a90.2,90.2,0,0,0-8.6,3.093,53.7,53.7,0,0,0-9.89,4.966,7.5,7.5,0,0,0-1.915,1.916,1.326,1.326,0,0,0-.085.482l1.9,1.8,4.526,1.447,10.77,1.93,12.316,2.114.128-1.064c-.042,0-.071-.014-.113-.014l-1.618-.256-.326-.582c-1.674-2.951-3.519-6.612-4.6-9.081a46.931,46.931,0,0,1-2.072-5.718c-.241-.965-.27-1.022-.425-1.036h0Zm-.227.724h.015c.014.014.071.412.128.88a29.642,29.642,0,0,0,1.376,5.974c.525,1.561.525,1.476-.085,1.291-1.447-.4-7.932-1.518-12.628-2.171-.752-.1-1.391-.2-1.391-.213-.057-.057,3.391-1.859,4.909-2.568C470.777,85.757,476.113,83.53,476.51,83.459Zm-13.678,6.357.554.184a84.579,84.579,0,0,0,14.743,2.81c.468.043.866.085.88.085a6.558,6.558,0,0,1-.894.468c-2.015,1.007-4.228,2.242-5.761,3.193a5.883,5.883,0,0,1-.922.511c-.057,0-.355-.057-.667-.1l-.568-.085-1.419-1.391c-2.5-2.426-4.456-4.3-5.208-5.009Zm-.567.44,2,2.5c1.092,1.376,2.2,2.724,2.441,3.022a4.656,4.656,0,0,1,.426.554c-.057.043-2.895-.511-4.4-.851-1.547-.355-2.185-.525-3.136-.823l-.78-.256v-.2c.014-.951,1.22-2.37,3.264-3.817Zm17,3.406c.057,0,.128.128.3.511.482,1.064,1.987,3.931,2.355,4.484.114.185.312.2-1.688-.128-4.81-.781-6.357-1.036-6.357-1.064a1.472,1.472,0,0,1,.326-.213,27.7,27.7,0,0,0,4.328-2.994c.326-.27.624-.525.681-.568.014-.028.043-.042.057-.028Z" transform="translate(-442.018 -82.734)" fill="url(#b)"/><path d="M400.3,167.757a1.414,1.414,0,0,0-.014,1.235,5.606,5.606,0,0,0,1.334,1.575s6.314,6.158,7.081,7.038a19.727,19.727,0,0,1,5.151,13.48,21.826,21.826,0,0,1-2.242,10.2c-2.951,6.442-9.181,13.551-18.787,21.44l1.4-.468a45.12,45.12,0,0,1,5.037-2.994,179.552,179.552,0,0,1,23.427-10.486c13.281-4.995,35.119-10.841,47.548-12.742l1.291-.2-.2-.312a43.752,43.752,0,0,0-2.852-4.016,34.094,34.094,0,0,0-10.074-8.386c-5.562-3.107-12.756-5.534-21.866-7.336-1.717-.341-5.491-.993-8.556-1.462-6.5-1.007-10.7-1.7-15.324-2.5-1.66-.284-4.143-.709-5.789-1.064a36.765,36.765,0,0,1-3.76-1.008C402.09,169.361,400.615,168.963,400.3,167.757Zm3.661,3.547a3.956,3.956,0,0,1,.539.17c.539.184,1.234.4,2.058.624q.934.257,1.873.5c.851.213,1.561.411,1.575.411.1.1,1.533,4.682,2.015,6.442.184.667.326,1.235.312,1.235a2.866,2.866,0,0,1-.355-.553,29.535,29.535,0,0,0-7.322-8.273A6.05,6.05,0,0,1,403.963,171.3Zm6.981,1.93a5.573,5.573,0,0,1,.766.128c2.412.539,6.74,1.362,9.507,1.83a3.475,3.475,0,0,1,.837.184,1.433,1.433,0,0,1-.383.241c-.468.241-2.355,1.362-2.98,1.788a27.184,27.184,0,0,0-4.016,3.207c-.411.412-.766.752-.766.752s-.085-.241-.156-.539a45.98,45.98,0,0,0-2.54-6.953,6.094,6.094,0,0,1-.284-.653C410.93,173.248,410.93,173.234,410.945,173.234Zm12.288,2.341a5.461,5.461,0,0,1,.511,1.575,23.229,23.229,0,0,1,.681,6.5,12.232,12.232,0,0,1-.085,1.22l-.042.142-.738-.241c-1.518-.482-3.987-1.206-6.1-1.8-1.206-.326-2.185-.624-2.185-.653a33.539,33.539,0,0,1,2.512-2.511,65.852,65.852,0,0,1,5.448-4.228Zm.979.142c.043-.042,5.874.965,8.528,1.476,1.972.383,4.839.979,5.009,1.05.085.028-.213.2-1.164.624a61.59,61.59,0,0,0-9.294,5.052c-.724.482-1.334.88-1.348.88a7.743,7.743,0,0,1-.028-.908,19.817,19.817,0,0,0-1.533-7.719A2.149,2.149,0,0,1,424.212,175.717Zm15.083,2.98a10.672,10.672,0,0,1-.312,1.873,35.573,35.573,0,0,1-3.575,8.2,9.346,9.346,0,0,1-.6.965,6.053,6.053,0,0,1-.851-.454,46.2,46.2,0,0,0-5.562-2.724c-.567-.241-1.064-.44-1.078-.468-.1-.085,4.47-3.108,6.882-4.555C436.116,180.372,439.238,178.64,439.295,178.7Zm1.078.17c.128,0,2.71.71,4.058,1.107a83.711,83.711,0,0,1,9.663,3.533l1.036.468-.723.17a105.774,105.774,0,0,0-16.36,5.066c-.411.17-.78.312-.809.312a3.657,3.657,0,0,1,.3-.724,28.734,28.734,0,0,0,2.738-9.45c.014-.27.057-.482.1-.482Zm-25.711,5.9c.042-.043,2.015.426,3.079.723,1.618.454,5.051,1.6,5.051,1.689,0,.014-.383.341-.837.738-1.859,1.547-3.647,3.178-5.79,5.25-.639.61-1.178,1.107-1.206,1.107s-.042-.085-.029-.2a31.991,31.991,0,0,0-.2-8.556C414.69,185.125,414.648,184.784,414.662,184.77Zm41.447.043a27.237,27.237,0,0,1-1.5,2.341c-.851,1.22-2.1,2.838-4.924,6.385-1.49,1.873-3.164,3.987-3.717,4.7s-1.036,1.305-1.05,1.305a4.9,4.9,0,0,1-.4-.567,29.322,29.322,0,0,0-5.747-6.343c-.426-.355-.894-.738-1.05-.851a1.582,1.582,0,0,1-.284-.241c0-.042,2.412-1.079,4.243-1.816,3.207-1.306,7.577-2.866,10.855-3.874C454.25,185.309,456.081,184.784,456.109,184.813Zm1.092.284a3.27,3.27,0,0,1,.809.4,48.127,48.127,0,0,1,9.493,7.123c.752.738,2.611,2.668,2.582,2.682,0,0-.653.057-1.419.113a139.863,139.863,0,0,0-20.972,3.491c-.5.113-.936.213-.965.213s.525-.553,1.221-1.22a36.3,36.3,0,0,0,8.613-11.465c.326-.7.61-1.291.638-1.334Zm-31.6,3.235c.2.042,2.043.908,3.434,1.6,1.277.638,3.193,1.66,3.292,1.745.014.014-.667.369-1.5.78-2.668,1.334-4.952,2.6-7.336,4.044-.681.412-1.249.752-1.263.752-.057,0-.043-.057.34-.752a29.628,29.628,0,0,0,2.881-7.818C425.5,188.474,425.56,188.332,425.6,188.332Zm-1.845.34a27.088,27.088,0,0,1-.738,2.739,34.94,34.94,0,0,1-2.512,5.761c-.227.4-.568.979-.752,1.305l-.355.568-.795-.766a10.423,10.423,0,0,0-2.639-1.944,3.811,3.811,0,0,1-.681-.4c0-.114,2.426-2.313,4.285-3.9C420.905,190.886,423.715,188.63,423.757,188.672Zm11.281,4.64.7.454a53.951,53.951,0,0,1,4.9,3.618c.809.667,2.369,2.072,2.682,2.412l.17.185-1.149.326c-6.5,1.8-11.522,3.405-17.382,5.562-.653.241-1.206.44-1.249.44-.085,0-.156.071,1.306-1.277a62.3,62.3,0,0,0,9.535-10.954l.5-.766Zm-2.966.738c.028.028-1.916,2.767-3.079,4.313-1.391,1.845-3.86,4.938-5.562,6.953-.709.837-1.319,1.533-1.348,1.547s-.057-.2-.057-.525a11.892,11.892,0,0,0-1.206-5.108c-.326-.653-.383-.809-.312-.88.27-.241,4.4-2.6,7.009-4,1.759-.936,4.512-2.327,4.555-2.3Zm-17.936,4.4a6.265,6.265,0,0,1,.738.369,15.584,15.584,0,0,1,2.441,1.646,4.232,4.232,0,0,1-.823.681c-1.348.965-3.391,2.512-4.583,3.462-1.249.993-1.291,1.022-1.15.809a24.348,24.348,0,0,0,3.093-6.243A2.406,2.406,0,0,1,414.137,198.449Zm4.782,3.746c.071-.014.156.114.539.681A10.237,10.237,0,0,1,421.048,207l.028.284-1.944.752c-3.477,1.348-6.683,2.682-8.854,3.675-.61.284-1.674.795-2.369,1.135s-1.263.624-1.263.61.44-.341.979-.738a57.213,57.213,0,0,0,10.671-9.833c.3-.355.568-.681.6-.7Zm-2.2.539a29.983,29.983,0,0,1-2.668,3.008,47.062,47.062,0,0,1-8.812,7.109c-.426.27-.809.511-.851.539-.1.057.028-.085,1.5-1.689.937-1.007,1.646-1.859,2.455-2.909a4.8,4.8,0,0,1,1.419-1.348C411.853,205.941,416.663,202.677,416.72,202.734Z" transform="translate(-385.889 -157.98)" fill="url(#c)"/></g></g></svg>