<svg xmlns="http://www.w3.org/2000/svg" xmlns:xlink="http://www.w3.org/1999/xlink" width="162.795" height="99.704" viewBox="0 0 162.795 99.704"><defs><linearGradient id="a" x1="-0.847" y1="-1.034" x2="-0.838" y2="-1.034" gradientUnits="objectBoundingBox"><stop offset="0.3" stop-color="#3e863d"/><stop offset="0.5" stop-color="#55934f"/><stop offset="0.8" stop-color="#5aad45"/></linearGradient><linearGradient id="b" x1="-0.742" y1="-0.932" x2="-0.737" y2="-0.932" gradientUnits="objectBoundingBox"><stop offset="0.57" stop-color="#3e863d"/><stop offset="0.72" stop-color="#619857"/><stop offset="1" stop-color="#76ac64"/></linearGradient><linearGradient id="c" x1="-2.148" y1="-2.103" x2="-2.138" y2="-2.103" gradientUnits="objectBoundingBox"><stop offset="0.16" stop-color="#6bbf47"/><stop offset="0.38" stop-color="#79b461"/><stop offset="0.47" stop-color="#75ac64"/><stop offset="0.7" stop-color="#659e5a"/><stop offset="0.9" stop-color="#3e863d"/></linearGradient></defs><g transform="translate(0 0)"><path d="M188.075,202.028a3.1,3.1,0,0,1-1.542-.412l-4.908-2.906c-.733-.41-.375-.555-.134-.638a9.909,9.909,0,0,0,2.219-1.012.373.373,0,0,1,.365.026l3.771,2.237a.5.5,0,0,0,.456,0l14.7-8.486a.464.464,0,0,0,.224-.4V173.474a.472.472,0,0,0-.227-.4l-14.7-8.479a.452.452,0,0,0-.453,0l-14.693,8.479a.469.469,0,0,0-.233.4v16.965a.453.453,0,0,0,.228.394l4.026,2.326c2.186,1.093,3.522-.2,3.522-1.49V174.92a.419.419,0,0,1,.427-.423h1.862a.421.421,0,0,1,.423.423v16.752c0,2.915-1.59,4.589-4.354,4.589a6.3,6.3,0,0,1-3.389-.92l-3.857-2.223a3.109,3.109,0,0,1-1.542-2.683V173.47a3.089,3.089,0,0,1,1.542-2.679l14.717-8.49a3.224,3.224,0,0,1,3.091,0l14.7,8.494a3.1,3.1,0,0,1,1.542,2.679v16.965a3.11,3.11,0,0,1-1.542,2.679l-14.7,8.49a3.09,3.09,0,0,1-1.549.412" transform="translate(-107.611 -102.324)" fill="#689f63"/><path d="M217.624,203.77c-6.433,0-7.781-2.953-7.781-5.43a.423.423,0,0,1,.426-.423h1.9a.425.425,0,0,1,.42.36c.287,1.935,1.141,2.911,5.031,2.911,3.1,0,4.416-.7,4.416-2.343,0-.946-.375-1.649-5.189-2.12-4.026-.4-6.514-1.284-6.514-4.5,0-2.966,2.5-4.733,6.694-4.733,4.707,0,7.04,1.634,7.334,5.145a.428.428,0,0,1-.427.464h-1.91a.422.422,0,0,1-.412-.331c-.46-2.035-1.571-2.686-4.593-2.686-3.382,0-3.776,1.178-3.776,2.061,0,1.071.464,1.384,5.027,1.987,4.519.6,6.665,1.446,6.665,4.622,0,3.2-2.672,5.038-7.331,5.038M235.509,185.8H236a.428.428,0,0,0,.482-.449c0-.434-.3-.434-.464-.434h-.508Zm-.6-1.391H236c.375,0,1.111,0,1.111.839a.73.73,0,0,1-.6.78c.438.029.467.316.526.721a3.1,3.1,0,0,0,.166.839h-.673c-.018-.147-.121-.957-.121-1-.044-.18-.107-.269-.331-.269h-.556v1.273h-.615Zm-1.314,1.582a2.375,2.375,0,1,0,2.366-2.37,2.379,2.379,0,0,0-2.366,2.37m5.211.011a2.834,2.834,0,1,1-2.834-2.834,2.842,2.842,0,0,1,2.834,2.834" transform="translate(-132.619 -115.756)" fill="#689f63"/><path d="M34.937,33.323A1.882,1.882,0,0,0,34,31.687L18.408,22.719a1.82,1.82,0,0,0-.857-.247h-.161a1.852,1.852,0,0,0-.861.247L.943,31.687A1.9,1.9,0,0,0,0,33.325L.034,57.481a.927.927,0,0,0,.467.813.891.891,0,0,0,.935,0L10.7,52.988a1.9,1.9,0,0,0,.942-1.634V40.069a1.877,1.877,0,0,1,.94-1.63l3.945-2.272a1.872,1.872,0,0,1,.942-.253,1.838,1.838,0,0,1,.936.253l3.943,2.271a1.878,1.878,0,0,1,.942,1.63V51.352a1.907,1.907,0,0,0,.944,1.634l9.261,5.3a.92.92,0,0,0,.942,0,.945.945,0,0,0,.467-.813ZM108.49,45.9a.468.468,0,0,1-.236.407L102.9,49.393a.472.472,0,0,1-.47,0l-5.354-3.086a.466.466,0,0,1-.236-.407V39.719a.474.474,0,0,1,.232-.408l5.351-3.091a.476.476,0,0,1,.475,0l5.354,3.091a.469.469,0,0,1,.236.408ZM109.936.119a.941.941,0,0,0-1.4.823v23.92a.658.658,0,0,1-.988.57l-3.9-2.249a1.88,1.88,0,0,0-1.881,0l-15.592,9a1.879,1.879,0,0,0-.942,1.627v18a1.885,1.885,0,0,0,.942,1.63l15.592,9.005a1.89,1.89,0,0,0,1.883,0l15.592-9.009a1.887,1.887,0,0,0,.942-1.63V6.942a1.887,1.887,0,0,0-.968-1.645Zm51.923,39.437a1.883,1.883,0,0,0,.936-1.627V33.566a1.884,1.884,0,0,0-.937-1.628l-15.493-8.994a1.882,1.882,0,0,0-1.888,0l-15.589,9a1.879,1.879,0,0,0-.942,1.63v18A1.889,1.889,0,0,0,128.9,53.2l15.489,8.828a1.878,1.878,0,0,0,1.847.011l9.369-5.207a.94.94,0,0,0,.007-1.638l-15.684-9a.934.934,0,0,1-.475-.813V39.739a.934.934,0,0,1,.471-.816l4.88-2.815a.931.931,0,0,1,.938,0l4.883,2.815a.938.938,0,0,1,.471.813v4.438a.939.939,0,0,0,1.413.813Zm0,0" fill="#fff" fill-rule="evenodd"/><path d="M389.087,105.116a.357.357,0,0,1,.361,0l2.992,1.726a.361.361,0,0,1,.18.313v3.456a.361.361,0,0,1-.18.313l-2.992,1.726a.357.357,0,0,1-.361,0l-2.99-1.726a.36.36,0,0,1-.184-.313v-3.456a.357.357,0,0,1,.18-.313Zm0,0" transform="translate(-243.894 -66.402)" fill="#689f63" fill-rule="evenodd"/><g transform="translate(27.038 9.048)"><path d="M217.867,210.017,174.179,188.6l-22.4,45.7,43.687,21.415Zm0,0" transform="translate(-151.778 -188.603)" fill="url(#a)"/></g><g transform="translate(24.202 6.656)"><path d="M144.07,212.242l30.848,41.751,40.8-30.142-30.85-41.75Zm0,0" transform="translate(-144.07 -182.101)" fill="url(#b)"/></g><g transform="translate(43.688 22.786)"><path d="M197.02,225.934v39.535h33.74V225.934Zm0,0" transform="translate(-197.02 -225.934)" fill="url(#c)"/></g></g></svg>